<?xml version="1.0" encoding="utf-8"?>
<svg xmlns="http://www.w3.org/2000/svg" height="256" width="256" viewBox="0 0 256 256">
  <g>
    <path id="path1" transform="rotate(0,128,128) translate(5,60.3499985337257) scale(7.6875,7.6875)  " fill="#3D79D2" d="M18.5,11.200008L25.400024,11.200008 26.900024,12.300014 20.200012,12.300014 18.200012,17.6 6,17.6 8.2000122,14.999994 16,14.999994z M28.400024,3.8000169C27.200012,3.8000169 26.200012,4.8000164 26.200012,5.9999976 26.200012,7.2000094 27.200012,8.2000094 28.400024,8.2000094 29.600037,8.2000094 30.600037,7.2000094 30.600037,5.9999976 30.600037,4.8000164 29.600037,3.8000169 28.400024,3.8000169z M28.400024,2.4999991C30.400024,2.4999991 32,4.1000047 32,6.1000037 32,7.4999972 31.200012,8.6000033 30.100037,9.2000084L30,9.2000084 29.200012,10.499996 28.300049,11.999995 27.400024,10.499996 26.600037,9.2000084 26.5,9.2000084C25.400024,8.6000033 24.600037,7.4000216 24.600037,6.1000037 24.800049,4.1000047 26.400024,2.4999991 28.400024,2.4999991z M5.8000488,2.2000113C3.8000488,2.2000113 2.2000122,3.8000169 2.2000122,5.8000164 2.2000122,7.8000155 3.8000488,9.4000206 5.8000488,9.4000206 7.8000488,9.4000206 9.4000244,7.8000155 9.4000244,5.8000164 9.4000244,3.8000169 7.8000488,2.2000113 5.8000488,2.2000113z M5.8000488,0C9,-2.9722287E-08 11.600037,2.6000052 11.600037,5.8000164 11.600037,7.9999972 10.400024,9.9000206 8.6000366,10.900021L8.5,10.999996 7.2000122,12.999995 5.8000488,15.400019 4.4000244,12.999995 3.2000122,10.900021 3,10.900021C1.2000122,9.9000206 0,7.9999972 0,5.8000164 0,2.6000052 2.6000366,-2.9722287E-08 5.8000488,0z" />
  </g>
</svg>

